<?xml version="1.0" encoding="UTF-8" standalone="no"?>
<!-- Created with Inkscape (http://www.inkscape.org/) -->

<svg
   xmlns:dc="http://purl.org/dc/elements/1.1/"
   xmlns:cc="http://creativecommons.org/ns#"
   xmlns:rdf="http://www.w3.org/1999/02/22-rdf-syntax-ns#"
   xmlns:svg="http://www.w3.org/2000/svg"
   xmlns="http://www.w3.org/2000/svg"
   xmlns:sodipodi="http://sodipodi.sourceforge.net/DTD/sodipodi-0.dtd"
   xmlns:inkscape="http://www.inkscape.org/namespaces/inkscape"
   width="210mm"
   height="297mm"
   viewBox="0 0 210 297"
   version="1.1"
   id="svg8"
   inkscape:version="0.92.2 2405546, 2018-03-11"
   sodipodi:docname="river_logo_fontspathed.svg">
  <defs
     id="defs2" />
  <sodipodi:namedview
     id="base"
     pagecolor="#ffffff"
     bordercolor="#666666"
     borderopacity="1.0"
     inkscape:pageopacity="0.0"
     inkscape:pageshadow="2"
     inkscape:zoom="0.99999999"
     inkscape:cx="188.82815"
     inkscape:cy="737.21825"
     inkscape:document-units="mm"
     inkscape:current-layer="layer1"
     showgrid="false"
     inkscape:window-width="1920"
     inkscape:window-height="1055"
     inkscape:window-x="0"
     inkscape:window-y="0"
     inkscape:window-maximized="1"
     showguides="false" />
  <metadata
     id="metadata5">
    <rdf:RDF>
      <cc:Work
         rdf:about="">
        <dc:format>image/svg+xml</dc:format>
        <dc:type
           rdf:resource="http://purl.org/dc/dcmitype/StillImage" />
        <dc:title />
      </cc:Work>
    </rdf:RDF>
  </metadata>
  <g
     inkscape:label="Layer 1"
     inkscape:groupmode="layer"
     id="layer1">
    <rect
       style="fill:#2ca089;fill-opacity:1;stroke:#e6e6e6;stroke-width:0;stroke-miterlimit:4;stroke-dasharray:none;stroke-opacity:1"
       id="rect18"
       width="51.064583"
       height="19.314583"
       x="36.962402"
       y="90.737671" />
    <text
       xml:space="preserve"
       style="font-style:normal;font-weight:normal;font-size:10.58333302px;line-height:1.25;font-family:sans-serif;letter-spacing:0px;word-spacing:0px;fill:#000000;fill-opacity:1;stroke:none;stroke-width:0.26458332"
       x="71.768227"
       y="116.62031"
       id="text31"><tspan
         sodipodi:role="line"
         id="tspan29"
         x="71.768227"
         y="125.98408"
         style="stroke-width:0.26458332" /></text>
    <rect
       style="fill:#2ca089;fill-opacity:1;stroke:#e6e6e6;stroke-width:0;stroke-miterlimit:4;stroke-dasharray:none;stroke-opacity:1"
       id="rect33"
       width="32.279167"
       height="19.31459"
       x="55.747818"
       y="90.737663" />
    <rect
       style="fill:#17554a;fill-opacity:1;stroke:#e6e6e6;stroke-width:0;stroke-miterlimit:4;stroke-dasharray:none;stroke-opacity:1"
       id="rect860"
       width="32.27916"
       height="14.485852"
       x="55.747818"
       y="90.737663" />
  </g>
  <g
     inkscape:groupmode="layer"
     id="layer2"
     inkscape:label="Layer 2">
    <rect
       style="fill:#afe9dd;fill-opacity:1;stroke:#e6e6e6;stroke-width:0;stroke-miterlimit:4;stroke-dasharray:none;stroke-opacity:1"
       id="rect4533"
       width="18.785418"
       height="19.314585"
       x="36.962402"
       y="90.737663" />
    <g
       aria-label="≈ ≈"
       transform="matrix(0.23804204,0,0,0.26458333,5.8528692,4.3447983)"
       style="font-style:normal;font-weight:normal;font-size:72.67359161px;line-height:23.98228264px;font-family:sans-serif;letter-spacing:0px;word-spacing:0px;fill:#17554a;fill-opacity:1;stroke:none"
       id="flowRoot4546">
      <path
         d="m 192.89341,351.7073 v 6.35185 q -3.72594,2.76784 -6.9196,4.00982 -3.15818,1.20649 -6.60024,1.20649 -3.90336,0 -9.0842,-2.09362 -0.35485,-0.14194 -0.60324,-0.2484 -0.21292,-0.071 -0.74519,-0.28388 -5.5002,-2.16459 -8.83581,-2.16459 -3.12269,0 -6.17441,1.34843 -3.05173,1.34844 -6.52927,4.32919 v -6.35184 q 3.72594,-2.76784 6.88412,-3.97434 3.19366,-1.24198 6.63572,-1.24198 3.90337,0 9.11969,2.09363 0.39033,0.17742 0.56776,0.24839 0.21291,0.071 0.74519,0.28388 5.5002,2.1646 8.8358,2.1646 3.05172,0 6.03248,-1.31295 3.01623,-1.34844 6.6712,-4.36468 z m 0,-13.80372 v 6.31636 q -3.72594,2.80332 -6.9196,4.0453 -3.15818,1.2065 -6.60024,1.2065 -3.90336,0 -9.0842,-2.09362 -0.35485,-0.14194 -0.60324,-0.2484 -0.21292,-0.071 -0.74519,-0.28388 -5.5002,-2.1646 -8.83581,-2.1646 -3.12269,0 -6.17441,1.34844 -3.05173,1.34844 -6.52927,4.2937 v -6.31635 q 3.72594,-2.76785 6.88412,-3.97434 3.19366,-1.24198 6.63572,-1.24198 3.90337,0 9.11969,2.09362 0.35485,0.14194 0.53227,0.21291 0.2484,0.10646 0.78068,0.31937 5.5002,2.16459 8.8358,2.16459 3.05172,0 6.03248,-1.31295 3.01623,-1.34843 6.6712,-4.36467 z"
         style="font-size:72.67359161px;line-height:23.98228264px;fill:#17554a;fill-opacity:1"
         id="path935" />
      <path
         d="m 192.89341,375.68957 v 6.35185 q -3.72594,2.76784 -6.9196,4.00982 -3.15818,1.20649 -6.60024,1.20649 -3.90336,0 -9.0842,-2.09362 -0.35485,-0.14194 -0.60324,-0.2484 -0.21292,-0.071 -0.74519,-0.28388 -5.5002,-2.16459 -8.83581,-2.16459 -3.12269,0 -6.17441,1.34843 -3.05173,1.34844 -6.52927,4.32919 v -6.35184 q 3.72594,-2.76784 6.88412,-3.97434 3.19366,-1.24198 6.63572,-1.24198 3.90337,0 9.11969,2.09363 0.39033,0.17742 0.56776,0.24839 0.21291,0.071 0.74519,0.28388 5.5002,2.1646 8.8358,2.1646 3.05172,0 6.03248,-1.31295 3.01623,-1.34844 6.6712,-4.36468 z m 0,-13.80372 v 6.31636 q -3.72594,2.80332 -6.9196,4.0453 -3.15818,1.2065 -6.60024,1.2065 -3.90336,0 -9.0842,-2.09362 -0.35485,-0.14195 -0.60324,-0.2484 -0.21292,-0.071 -0.74519,-0.28388 -5.5002,-2.1646 -8.83581,-2.1646 -3.12269,0 -6.17441,1.34844 -3.05173,1.34844 -6.52927,4.2937 v -6.31635 q 3.72594,-2.76785 6.88412,-3.97434 3.19366,-1.24198 6.63572,-1.24198 3.90337,0 9.11969,2.09362 0.35485,0.14194 0.53227,0.21291 0.2484,0.10646 0.78068,0.31937 5.5002,2.16459 8.8358,2.16459 3.05172,0 6.03248,-1.31295 3.01623,-1.34843 6.6712,-4.36467 z"
         style="font-size:72.67359161px;line-height:23.98228264px;fill:#17554a;fill-opacity:1"
         id="path937" />
    </g>
    <text
       xml:space="preserve"
       style="font-style:normal;font-weight:normal;font-size:10.58333302px;line-height:1.25;font-family:sans-serif;letter-spacing:0px;word-spacing:0px;fill:#000000;fill-opacity:1;stroke:none;stroke-width:0.26458332"
       x="15.497024"
       y="108.0119"
       id="text4609"><tspan
         sodipodi:role="line"
         id="tspan4607"
         x="15.497024"
         y="117.37567"
         style="stroke-width:0.26458332" /></text>
    <g
       id="g869"
       transform="translate(0,0.61383342)"
       style="fill:#f9f9f9">
      <g
         aria-label="River"
         transform="matrix(0.26458333,0,0,0.26458333,0.36002302,-3.1827228)"
         style="font-style:normal;font-variant:normal;font-weight:normal;font-stretch:normal;font-size:40px;line-height:1.25;font-family:Diavlo;-inkscape-font-specification:Diavlo;letter-spacing:0px;word-spacing:0px;fill:#f9f9f9;fill-opacity:1;stroke:none"
         id="flowRoot4611">
        <path
           d="m 229.01,397.26953 c -0.16,-1.24 -0.28,-6.2 -0.36,-10.24 0.72,0.16 1.4,0.24 2.12,0.24 2.56,2.88 6.44,7.08 7.88,10 h 5.4 c -1.12,-0.84 -8.24,-10.28 -9.2,-10.76 3.28,-1.24 5.52,-4.08 5.52,-7.64 0,-6.52 -4.84,-8.12 -8.84,-8.12 -0.16,0 -0.28,0 -7.64,0.2 l -0.28,0.68 c 1.44,1.8 1.08,8.24 1.08,15 0.04,3.08 -0.04,6.52 -0.04,10 v 0.64 z m 2.16,-12 c -1.28,0 -1.96,-0.08 -2.52,-0.36 0,-0.28 0,-0.68 0,-1.2 0,-3.6 0,-9.24 0.12,-10.68 l 2.16,-0.08 c 2.52,-0.08 5.88,1.64 5.88,6.8 0,3.4 -2.56,5.52 -5.64,5.52 z"
           style="font-style:normal;font-variant:normal;font-weight:normal;font-stretch:normal;font-family:'Fontin SmallCaps';-inkscape-font-specification:'Fontin SmallCaps, ';fill:#f9f9f9"
           id="path871" />
        <path
           d="m 252.27812,397.26953 c -0.32,-0.68 -0.36,-5.08 -0.36,-8.44 0,-4.4 0.16,-9.2 0.32,-12.8 -0.64,-0.28 -1.44,-0.4 -2.08,-0.4 -1.32,0 -2.52,0.44 -2.52,0.44 l -0.24,0.52 c 0.4,0.56 0.92,1 0.92,3.52 0,14.88 -0.04,16.12 -0.08,17.16 z"
           style="font-style:normal;font-variant:normal;font-weight:normal;font-stretch:normal;font-family:'Fontin SmallCaps';-inkscape-font-specification:'Fontin SmallCaps, ';fill:#f9f9f9"
           id="path873" />
        <path
           d="m 268.86375,397.94953 -1.68,-0.28 c -1.68,-0.32 -2.32,-1.72 -2.52,-2.44 l -5.4,-14 c -1.28,-3.68 -2.32,-4.52 -2.52,-4.6 l 0.24,-0.52 c 0.52,-0.24 1.56,-0.48 2.52,-0.48 0.8,0 1.72,0.16 2.16,0.6 0.8,3.32 5.28,14.96 6.68,17.92 0,0 0.2,-1.32 0.64,-2.4 l 4.76,-11.24 c 0.32,-0.72 0.52,-1.4 0.52,-2.12 0,-0.64 -0.2,-1.28 -0.72,-1.8 l 0.24,-0.52 c 0.56,-0.28 1.56,-0.44 2.32,-0.44 0.68,0 1.32,0.16 1.8,0.48 -0.04,1.28 -0.8,3.24 -1.24,4.24 l -6.72,14.88 z"
           style="font-style:normal;font-variant:normal;font-weight:normal;font-stretch:normal;font-family:'Fontin SmallCaps';-inkscape-font-specification:'Fontin SmallCaps, ';fill:#f9f9f9"
           id="path875" />
        <path
           d="m 282.37687,380.18953 v 14.92 c 0,0 0.04,1.12 -0.04,2.16 h 8.39999 c 1.2,0 3.12,-0.12 3.12,-1.92 0,-0.36 -0.08,-0.76 -0.08,-0.76 0,0 -0.20001,0.44 -1.28001,0.44 h -6.32 c -0.04,-0.08 -0.08,-0.16 -0.08,-0.2 -0.08,-2.08 -0.12,-4.44 -0.08,-7.12 0.88,-0.04 3.23999,0 3.44,0 1.2,0 3.11999,-0.08 3.11999,-1.88 0,-0.36 -0.08,-0.76 -0.08,-0.76 0,0 -0.2,0.44 -1.27999,0.44 h -5.2 c 0,-2.04 0.15999,-5.96 0.23999,-7.56 l 2.72,0.08 c 1.92001,0.08 3.4,0.8 3.64,1.76 h 0.64 c 0.40001,-0.36 0.40001,-3 -0.44,-3.8 l -5.91999,0.12 h -5.20001 l -0.23999,0.52 c 0.39999,0.56 0.91999,1.04 0.91999,3.56 z"
           style="font-style:normal;font-variant:normal;font-weight:normal;font-stretch:normal;font-family:'Fontin SmallCaps';-inkscape-font-specification:'Fontin SmallCaps, ';fill:#f9f9f9"
           id="path877" />
        <path
           d="m 303.94937,397.26953 c -0.11999,-1 -0.23999,-4.96 -0.32,-8.2 0.64001,0.12 1.12,0.2 1.72,0.2 2.24001,2.32 5.56,5.68 6.80001,8 h 4.91999 c -0.96,-0.68 -7.12,-8.24 -7.96,-8.6 2.84,-0.88 4.8,-3.28 4.8,-6.12 0,-5.2 -4.31999,-6.6 -7.75999,-6.6 -0.16001,0 -0.48001,0 -6.84001,0.16 l -0.24,0.52 c 1.24,1.44 0.92,6.72 0.92,12.12 0.04,2.48 -0.04,5.24 -0.04,8 v 0.52 z m 1.88001,-9.72 c -1.12,0 -1.68,-0.08 -2.20001,-0.28 0,-0.24 0,-0.56 0,-0.96 0,-2.88 0,-7.16 0.12,-8.32 l 1.88,-0.04 c 2.16,-0.08 4.96001,1.16 4.96001,5.32 0,2.72 -2.12,4.28 -4.76,4.28 z"
           style="font-style:normal;font-variant:normal;font-weight:normal;font-stretch:normal;font-family:'Fontin SmallCaps';-inkscape-font-specification:'Fontin SmallCaps, ';fill:#f9f9f9"
           id="path879" />
      </g>
      <g
         aria-label="the"
         style="font-style:normal;font-weight:normal;font-size:4.23333359px;line-height:1.25;font-family:sans-serif;letter-spacing:0px;word-spacing:0px;fill:#f9f9f9;fill-opacity:1;stroke:none;stroke-width:0.26458332"
         id="text42">
        <path
           d="m 69.989429,92.671989 0.503767,-0.02117 c 0.118533,0.118533 0.08467,0.376766 0.05927,0.410633 h -0.06773 c -0.01693,-0.1016 -0.169333,-0.1778 -0.385233,-0.1778 h -0.2667 c 0,0.0381 -0.02117,1.4097 -0.0085,1.8796 0,0.05927 0.0127,0.105833 0.02117,0.148167 h -0.423333 v -0.05503 c 0.0085,-0.880533 0,-1.718733 0,-1.718733 0,-0.09737 -0.0042,-0.194733 -0.01693,-0.254 h -0.2667 c -0.2159,0 -0.3683,0.0762 -0.385233,0.1778 h -0.06773 c -0.0254,-0.03387 -0.05927,-0.2921 0.05927,-0.410633 l 0.503767,0.02117 z"
           style="font-style:normal;font-variant:normal;font-weight:normal;font-stretch:normal;font-size:4.23333359px;font-family:'Fontin SmallCaps';-inkscape-font-specification:'Fontin SmallCaps, ';fill:#f9f9f9;stroke-width:0.26458332"
           id="path882" />
        <path
           d="m 73.036371,94.018189 c 0,-0.465666 0.01693,-0.973666 0.03387,-1.350433 -0.07197,-0.02963 -0.156633,-0.04233 -0.224367,-0.04233 -0.1397,0 -0.262466,0.04657 -0.262466,0.04657 l -0.0254,0.05503 c 0.04233,0.05927 0.09737,0.105833 0.09737,0.372533 0,0.105833 0,0.325967 -0.0042,0.575733 h -1.2065 c 0.0042,-0.364066 0.02117,-0.715433 0.03387,-1.007533 -0.06773,-0.02963 -0.1524,-0.04233 -0.220134,-0.04233 -0.1397,0 -0.2667,0.04657 -0.2667,0.04657 l -0.0254,0.05503 c 0.04233,0.05927 0.09737,0.105833 0.09737,0.372533 0,1.570567 -0.0042,1.7018 -0.0085,1.811867 h 0.427567 c -0.03387,-0.07197 -0.0381,-0.537634 -0.0381,-0.893234 v -0.143933 h 1.2065 c 0,0.4064 -0.0042,0.808567 -0.0042,0.842433 0,0.07197 0,0.135467 0.0127,0.194734 h 0.414866 c -0.0381,-0.07197 -0.0381,-0.537634 -0.0381,-0.893234 z"
           style="font-style:normal;font-variant:normal;font-weight:normal;font-stretch:normal;font-size:4.23333359px;font-family:'Fontin SmallCaps';-inkscape-font-specification:'Fontin SmallCaps, ';fill:#f9f9f9;stroke-width:0.26458332"
           id="path884" />
        <path
           d="m 73.899045,93.103789 v 1.579034 c 0,0 0.0042,0.118533 -0.0042,0.2286 h 0.889 c 0.127,0 0.3302,-0.0127 0.3302,-0.2032 0,-0.0381 -0.0085,-0.08043 -0.0085,-0.08043 0,0 -0.02117,0.04657 -0.135466,0.04657 h -0.668867 c -0.0042,-0.0085 -0.0085,-0.01693 -0.0085,-0.02117 -0.0085,-0.220133 -0.0127,-0.4699 -0.0085,-0.753533 0.09313,-0.0042 0.342901,0 0.364067,0 0.127,0 0.3302,-0.0085 0.3302,-0.198967 0,-0.0381 -0.0085,-0.08043 -0.0085,-0.08043 0,0 -0.02117,0.04657 -0.135467,0.04657 h -0.550334 c 0,-0.2159 0.01693,-0.630767 0.0254,-0.8001 l 0.287867,0.0085 c 0.2032,0.0085 0.359834,0.08467 0.385234,0.186267 h 0.06773 c 0.04233,-0.0381 0.04233,-0.3175 -0.04657,-0.402167 l -0.626533,0.0127 h -0.550334 l -0.0254,0.05503 c 0.04233,0.05927 0.09737,0.110066 0.09737,0.376766 z"
           style="font-style:normal;font-variant:normal;font-weight:normal;font-stretch:normal;font-size:4.23333359px;font-family:'Fontin SmallCaps';-inkscape-font-specification:'Fontin SmallCaps, ';fill:#f9f9f9;stroke-width:0.26458332"
           id="path886" />
      </g>
    </g>
    <rect
       style="fill:#f9f9f9;fill-opacity:1;stroke:#e6e6e6;stroke-width:0;stroke-miterlimit:4;stroke-dasharray:none;stroke-opacity:1"
       id="rect44"
       width="32.279167"
       height="4.8287492"
       x="55.747814"
       y="105.22352" />
    <g
       aria-label="International"
       transform="scale(1.0083812,0.99168846)"
       style="font-style:normal;font-variant:normal;font-weight:bold;font-stretch:normal;font-size:4.98028231px;line-height:1.25;font-family:'Latin Modern Roman';-inkscape-font-specification:'Latin Modern Roman, Bold';letter-spacing:0px;word-spacing:0px;fill:#17554a;fill-opacity:1;stroke:none;stroke-width:0.26680085"
       id="text48">
      <path
         d="m 59.024401,110.0085 v -0.20064 h -0.486644 v -2.52713 h 0.486644 v -0.20064 c -0.175021,0.0128 -0.593365,0.0128 -0.78973,0.0128 -0.196366,0 -0.614709,0 -0.789731,-0.0128 v 0.20064 h 0.486645 v 2.52713 H 57.44494 v 0.20064 c 0.175022,-0.0128 0.593365,-0.0128 0.789731,-0.0128 0.196365,0 0.614709,0 0.78973,0.0128 z"
         style="font-style:normal;font-variant:normal;font-weight:bold;font-stretch:normal;font-size:4.26881361px;font-family:'Latin Modern Roman';-inkscape-font-specification:'Latin Modern Roman, Bold';fill:#17554a;fill-opacity:1;stroke-width:0.26680085"
         id="path889" />
      <path
         d="m 61.788658,110.0085 v -0.20064 H 61.49411 v -1.10562 c 0,-0.44822 -0.230516,-0.61471 -0.657397,-0.61471 -0.409806,0 -0.636053,0.24333 -0.747043,0.46103 v -0.46103 l -0.734235,0.0341 v 0.20064 c 0.264666,0 0.294548,0 0.294548,0.16648 v 1.31906 h -0.294548 v 0.20064 l 0.53787,-0.0128 0.537871,0.0128 v -0.20064 h -0.294549 v -0.89218 c 0,-0.4653 0.367118,-0.67447 0.636054,-0.67447 0.145139,0 0.234784,0.0897 0.234784,0.41408 v 1.15257 h -0.294548 v 0.20064 l 0.537871,-0.0128 z"
         style="font-style:normal;font-variant:normal;font-weight:bold;font-stretch:normal;font-size:4.26881361px;font-family:'Latin Modern Roman';-inkscape-font-specification:'Latin Modern Roman, Bold';fill:#17554a;fill-opacity:1;stroke-width:0.26680085"
         id="path891" />
      <path
         d="m 63.386995,109.47917 v -0.22625 h -0.200634 v 0.21771 c 0,0.29028 -0.136602,0.39273 -0.256129,0.39273 -0.247591,0 -0.247591,-0.2732 -0.247591,-0.37139 v -1.17819 h 0.623247 v -0.20063 h -0.623247 v -0.81535 h -0.200634 c -0.0043,0.42688 -0.213441,0.8495 -0.636053,0.8623 v 0.15368 h 0.350042 v 1.16966 c 0,0.45676 0.371387,0.55067 0.674473,0.55067 0.32443,0 0.516526,-0.24332 0.516526,-0.55494 z"
         style="font-style:normal;font-variant:normal;font-weight:bold;font-stretch:normal;font-size:4.26881361px;font-family:'Latin Modern Roman';-inkscape-font-specification:'Latin Modern Roman, Bold';fill:#17554a;fill-opacity:1;stroke-width:0.26680085"
         id="path893" />
      <path
         d="m 65.774396,109.50905 c 0,-0.0768 -0.08111,-0.0768 -0.102451,-0.0768 -0.07257,0 -0.08111,0.0213 -0.106721,0.0896 -0.08965,0.20491 -0.332967,0.34151 -0.61044,0.34151 -0.601903,0 -0.606172,-0.56775 -0.606172,-0.78546 h 1.289182 c 0.09391,0 0.136602,0 0.136602,-0.11526 0,-0.13233 -0.02561,-0.44396 -0.239053,-0.6574 -0.157947,-0.15367 -0.384194,-0.23051 -0.678742,-0.23051 -0.68301,0 -1.054397,0.43968 -1.054397,0.97329 0,0.57202 0.426882,0.98609 1.114161,0.98609 0.674472,0 0.858031,-0.45249 0.858031,-0.52506 z m -0.405537,-0.57202 h -1.020247 c 0.0085,-0.16649 0.01281,-0.34578 0.102452,-0.48665 0.110989,-0.17075 0.281742,-0.22198 0.405537,-0.22198 0.499451,0 0.507989,0.55922 0.512258,0.70863 z"
         style="font-style:normal;font-variant:normal;font-weight:bold;font-stretch:normal;font-size:4.26881361px;font-family:'Latin Modern Roman';-inkscape-font-specification:'Latin Modern Roman, Bold';fill:#17554a;fill-opacity:1;stroke-width:0.26680085"
         id="path895" />
      <path
         d="m 67.80355,108.43758 c 0,-0.22625 -0.230516,-0.35005 -0.452494,-0.35005 -0.298817,0 -0.469569,0.21344 -0.567752,0.48238 v -0.48238 l -0.708623,0.0341 v 0.20064 c 0.264666,0 0.294548,0 0.294548,0.16648 v 1.31906 h -0.294548 v 0.20064 l 0.53787,-0.0128 c 0.162215,0 0.435419,0 0.589097,0.0128 v -0.20064 h -0.371387 v -0.74704 c 0,-0.29881 0.10672,-0.81961 0.533602,-0.81961 0,0 -0.08111,0.0726 -0.08111,0.19637 0,0.17502 0.136602,0.26039 0.260398,0.26039 0.123795,0 0.260397,-0.0896 0.260397,-0.26039 z"
         style="font-style:normal;font-variant:normal;font-weight:bold;font-stretch:normal;font-size:4.26881361px;font-family:'Latin Modern Roman';-inkscape-font-specification:'Latin Modern Roman, Bold';fill:#17554a;fill-opacity:1;stroke-width:0.26680085"
         id="path897" />
      <path
         d="m 70.568074,110.0085 v -0.20064 h -0.294548 v -1.10562 c 0,-0.44822 -0.230516,-0.61471 -0.657397,-0.61471 -0.409806,0 -0.636054,0.24333 -0.747043,0.46103 v -0.46103 l -0.734236,0.0341 v 0.20064 c 0.264667,0 0.294549,0 0.294549,0.16648 v 1.31906 H 68.13485 v 0.20064 l 0.537871,-0.0128 0.53787,0.0128 v -0.20064 h -0.294548 v -0.89218 c 0,-0.4653 0.367118,-0.67447 0.636054,-0.67447 0.145139,0 0.234784,0.0897 0.234784,0.41408 v 1.15257 h -0.294548 v 0.20064 l 0.537871,-0.0128 z"
         style="font-style:normal;font-variant:normal;font-weight:bold;font-stretch:normal;font-size:4.26881361px;font-family:'Latin Modern Roman';-inkscape-font-specification:'Latin Modern Roman, Bold';fill:#17554a;fill-opacity:1;stroke-width:0.26680085"
         id="path899" />
      <path
         d="m 73.029779,109.90605 c 0,-0.0982 -0.0555,-0.0982 -0.11099,-0.0982 -0.260397,-0.004 -0.260397,-0.0598 -0.260397,-0.15794 v -0.9178 c 0,-0.37992 -0.303086,-0.65739 -0.939139,-0.65739 -0.243323,0 -0.764118,0.0171 -0.764118,0.39273 0,0.18783 0.149409,0.26893 0.264667,0.26893 0.132333,0 0.268935,-0.0896 0.268935,-0.26893 0,-0.12807 -0.08111,-0.20064 -0.09391,-0.20917 0.119527,-0.0256 0.256129,-0.0299 0.307354,-0.0299 0.320162,0 0.46957,0.17929 0.46957,0.50372 v 0.14514 c -0.303086,0.0128 -1.387364,0.0512 -1.387364,0.67021 0,0.4098 0.529332,0.48664 0.823881,0.48664 0.341505,0 0.542139,-0.17502 0.636053,-0.35431 0,0.13233 0,0.3287 0.443956,0.3287 h 0.204903 c 0.08538,0 0.136603,0 0.136603,-0.10245 z m -0.858032,-0.49092 c 0,0.40981 -0.392731,0.4653 -0.499451,0.4653 -0.21771,0 -0.388462,-0.1494 -0.388462,-0.33723 0,-0.46103 0.674472,-0.5208 0.887913,-0.5336 z"
         style="font-style:normal;font-variant:normal;font-weight:bold;font-stretch:normal;font-size:4.26881361px;font-family:'Latin Modern Roman';-inkscape-font-specification:'Latin Modern Roman, Bold';fill:#17554a;fill-opacity:1;stroke-width:0.26680085"
         id="path901" />
      <path
         d="m 74.684344,109.47917 v -0.22625 H 74.48371 v 0.21771 c 0,0.29028 -0.136602,0.39273 -0.256129,0.39273 -0.247591,0 -0.247591,-0.2732 -0.247591,-0.37139 v -1.17819 h 0.623247 v -0.20063 H 73.97999 v -0.81535 h -0.200634 c -0.0043,0.42688 -0.213441,0.8495 -0.636053,0.8623 v 0.15368 h 0.350042 v 1.16966 c 0,0.45676 0.371387,0.55067 0.674473,0.55067 0.32443,0 0.516526,-0.24332 0.516526,-0.55494 z"
         style="font-style:normal;font-variant:normal;font-weight:bold;font-stretch:normal;font-size:4.26881361px;font-family:'Latin Modern Roman';-inkscape-font-specification:'Latin Modern Roman, Bold';fill:#17554a;fill-opacity:1;stroke-width:0.26680085"
         id="path903" />
      <path
         d="m 76.183832,110.0085 v -0.20064 h -0.264666 v -1.72033 l -0.742774,0.0341 v 0.20064 c 0.25186,0 0.281742,0 0.281742,0.16648 v 1.31906 h -0.294548 v 0.20064 l 0.520795,-0.0128 z m -0.204903,-2.59117 c 0,-0.18356 -0.149408,-0.33297 -0.332967,-0.33297 -0.183559,0 -0.332968,0.14941 -0.332968,0.33297 0,0.18356 0.149409,0.33297 0.332968,0.33297 0.183559,0 0.332967,-0.14941 0.332967,-0.33297 z"
         style="font-style:normal;font-variant:normal;font-weight:bold;font-stretch:normal;font-size:4.26881361px;font-family:'Latin Modern Roman';-inkscape-font-specification:'Latin Modern Roman, Bold';fill:#17554a;fill-opacity:1;stroke-width:0.26680085"
         id="path905" />
      <path
         d="m 78.635665,109.0779 c 0,-0.57202 -0.392731,-1.00317 -1.088547,-1.00317 -0.700086,0 -1.088548,0.43542 -1.088548,1.00317 0,0.52933 0.375656,0.95621 1.088548,0.95621 0.71716,0 1.088547,-0.43115 1.088547,-0.95621 z m -0.546408,-0.047 c 0,0.37139 0,0.83242 -0.542139,0.83242 -0.54214,0 -0.54214,-0.46103 -0.54214,-0.83242 0,-0.1921 0,-0.40981 0.07257,-0.55494 0.08111,-0.15795 0.260398,-0.2476 0.46957,-0.2476 0.17929,0 0.35858,0.0683 0.452494,0.21771 0.08965,0.14514 0.08965,0.37993 0.08965,0.58483 z"
         style="font-style:normal;font-variant:normal;font-weight:bold;font-stretch:normal;font-size:4.26881361px;font-family:'Latin Modern Roman';-inkscape-font-specification:'Latin Modern Roman, Bold';fill:#17554a;fill-opacity:1;stroke-width:0.26680085"
         id="path907" />
      <path
         d="m 81.398521,110.0085 v -0.20064 h -0.294548 v -1.10562 c 0,-0.44822 -0.230516,-0.61471 -0.657397,-0.61471 -0.409806,0 -0.636053,0.24333 -0.747042,0.46103 v -0.46103 l -0.734236,0.0341 v 0.20064 c 0.264666,0 0.294548,0 0.294548,0.16648 v 1.31906 h -0.294548 v 0.20064 l 0.53787,-0.0128 0.537871,0.0128 v -0.20064 H 79.74649 v -0.89218 c 0,-0.4653 0.367118,-0.67447 0.636054,-0.67447 0.145139,0 0.234784,0.0897 0.234784,0.41408 v 1.15257 H 80.32278 v 0.20064 l 0.537871,-0.0128 z"
         style="font-style:normal;font-variant:normal;font-weight:bold;font-stretch:normal;font-size:4.26881361px;font-family:'Latin Modern Roman';-inkscape-font-specification:'Latin Modern Roman, Bold';fill:#17554a;fill-opacity:1;stroke-width:0.26680085"
         id="path909" />
      <path
         d="m 83.860227,109.90605 c 0,-0.0982 -0.05549,-0.0982 -0.110989,-0.0982 -0.260398,-0.004 -0.260398,-0.0598 -0.260398,-0.15794 v -0.9178 c 0,-0.37992 -0.303086,-0.65739 -0.939139,-0.65739 -0.243322,0 -0.764118,0.0171 -0.764118,0.39273 0,0.18783 0.149409,0.26893 0.264667,0.26893 0.132333,0 0.268935,-0.0896 0.268935,-0.26893 0,-0.12807 -0.08111,-0.20064 -0.09391,-0.20917 0.119527,-0.0256 0.256129,-0.0299 0.307355,-0.0299 0.320161,0 0.469569,0.17929 0.469569,0.50372 v 0.14514 c -0.303086,0.0128 -1.387364,0.0512 -1.387364,0.67021 0,0.4098 0.529333,0.48664 0.823881,0.48664 0.341505,0 0.542139,-0.17502 0.636053,-0.35431 0,0.13233 0,0.3287 0.443957,0.3287 h 0.204903 c 0.08538,0 0.136602,0 0.136602,-0.10245 z m -0.858032,-0.49092 c 0,0.40981 -0.392731,0.4653 -0.499451,0.4653 -0.21771,0 -0.388462,-0.1494 -0.388462,-0.33723 0,-0.46103 0.674472,-0.5208 0.887913,-0.5336 z"
         style="font-style:normal;font-variant:normal;font-weight:bold;font-stretch:normal;font-size:4.26881361px;font-family:'Latin Modern Roman';-inkscape-font-specification:'Latin Modern Roman, Bold';fill:#17554a;fill-opacity:1;stroke-width:0.26680085"
         id="path911" />
      <path
         d="m 85.134866,110.0085 v -0.20064 h -0.294548 v -2.76192 l -0.75558,0.0341 v 0.20064 c 0.264666,0 0.294548,0 0.294548,0.16648 v 2.36065 h -0.294548 v 0.20064 l 0.525064,-0.0128 z"
         style="font-style:normal;font-variant:normal;font-weight:bold;font-stretch:normal;font-size:4.26881361px;font-family:'Latin Modern Roman';-inkscape-font-specification:'Latin Modern Roman, Bold';fill:#17554a;fill-opacity:1;stroke-width:0.26680085"
         id="path913" />
    </g>
  </g>
</svg>
